<svg xmlns="http://www.w3.org/2000/svg" viewBox="518.965 1757.8 34.546 43.863"><g transform="translate(518.964 1757.812)"><g transform="translate(0.001 -0.011)"><path d="M173.983,21.911a41.846,41.846,0,0,1-5.329,20.528,2.3,2.3,0,0,1-3.24,1.105,2.328,2.328,0,0,1-.712-3.3,37.768,37.768,0,0,0,.076-36.514,2.692,2.692,0,0,1-.348-2.241A2.076,2.076,0,0,1,166.263.005a2.175,2.175,0,0,1,2.271,1.166,39.518,39.518,0,0,1,3.664,8.6A41.517,41.517,0,0,1,173.983,21.911Z" transform="translate(-139.437 0.011)"/><path d="M117.375,45.891a32.724,32.724,0,0,1-4.284,16.8,2.248,2.248,0,0,1-2.422,1.287,2.009,2.009,0,0,1-1.786-1.7,3.545,3.545,0,0,1,.378-1.923,28.433,28.433,0,0,0,3.467-10.87,27.887,27.887,0,0,0-3.376-16.7,2.8,2.8,0,0,1-.53-2.059,2.286,2.286,0,0,1,1.786-1.756,2.149,2.149,0,0,1,2.422,1.166c.923,1.892,1.877,3.8,2.619,5.768A29.341,29.341,0,0,1,117.375,45.891Z" transform="translate(-92.305 -24.559)"/><path d="M60.727,70.539a23.534,23.534,0,0,1-3.315,12.368,2.259,2.259,0,1,1-3.906-2.256,19.231,19.231,0,0,0,2.2-5.359,18.43,18.43,0,0,0-1.907-13.5,5.049,5.049,0,0,1-.56-1.151,2.187,2.187,0,0,1,1.287-2.664,2.21,2.21,0,0,1,2.816.954,22.29,22.29,0,0,1,3.209,9.431C60.652,69.222,60.7,70.1,60.727,70.539Z" transform="translate(-45.104 -49.04)"/><path d="M6.707,94.127A13.325,13.325,0,0,1,4.134,102.2a2.191,2.191,0,0,1-2.377.954,2.012,2.012,0,0,1-1.711-1.862,2.9,2.9,0,0,1,.424-1.7A9.061,9.061,0,0,0,.455,88.8a2.276,2.276,0,0,1,.469-3.209,2.256,2.256,0,0,1,3.24.651A13.148,13.148,0,0,1,6.707,94.127Z" transform="translate(-0.001 -72.265)"/></g></g></svg>